<svg width="35" height="35" viewBox="0 0 35 35" fill="none" xmlns="http://www.w3.org/2000/svg">
<path d="M16.8395 0.0245314C6.44653 0.567588 -0.413947 8.71853 0.0194105 18.9969C0.208722 23.4958 2.01737 27.367 2.44575 31.6368C2.55545 32.7428 2.23653 34.108 3.51196 34.5913C5.08142 35.1841 7.48786 34.1877 8.80309 33.276C9.25149 32.9721 9.67998 32.6183 10.0089 32.1799C11.369 33.0817 12.6593 33.9536 14.2786 34.3422C21.4082 36.0511 29.2203 32.14 32.6929 25.8574C39.2197 14.0546 30.3961 -0.682958 16.8395 0.0245314ZM12.8039 24.6567C12.2409 25.0952 11.6978 25.693 11.0751 26.0367C10.1733 26.5201 9.89418 26.0168 9.55547 25.2197C8.48926 22.6838 8.35966 18.3642 8.98245 15.7086C9.81954 12.0965 12.6145 8.91779 16.4559 8.57909C20.342 8.2353 23.9491 10.2083 25.5782 13.7706C29.1855 21.6973 19.9534 29.5243 12.8039 24.6617V24.6567Z" fill="white"/>
</svg>
